IKResults
version=1
nRows=8
nColumns=40
inDegrees=yes

Units are S.I. units (second, meters, Newtons, ...)
Angles are in degrees.

endheader
time	pelvis_tilt	pelvis_list	pelvis_rotation	pelvis_tx	pelvis_ty	pelvis_tz	hip_flexion_r	hip_adduction_r	hip_rotation_r	knee_angle_r	knee_angle_r_beta	ankle_angle_r	subtalar_angle_r	mtp_angle_r	hip_flexion_l	hip_adduction_l	hip_rotation_l	knee_angle_l	knee_angle_l_beta	ankle_angle_l	subtalar_angle_l	mtp_angle_l	lumbar_extension	lumbar_bending	lumbar_rotation	arm_flex_r	arm_add_r	arm_rot_r	elbow_flex_r	pro_sup_r	wrist_flex_r	wrist_dev_r	arm_flex_l	arm_add_l	arm_rot_l	elbow_flex_l	pro_sup_l	wrist_flex_l	wrist_dev_l
      2.49000000	     16.33813618	     -2.84194369	     -1.25638364	      0.52543305	      0.95060919	     -1.05005922	      0.27133623	     -0.04735957	    -11.11929789	    -30.56514129	     -0.53346235	      5.78012476	     -6.31781278	      2.76962135	    -20.81488535	     -0.74939931	     23.98337694	     -7.72836001	     -0.13488533	      8.06798391	     -6.42525146	     -5.23774534	    -25.19722039	      1.19526323	     -2.50930396	     -0.61805466	     -9.58410898	      0.98071523	     16.96851009	     89.95437384	      0.00000000	      0.00000000	     15.64498525	     11.01179179	      3.97963979	     29.62054691	     89.95437384	      0.00000000	      0.00000000
      2.50000000	     16.05124497	     -2.83248024	     -1.26387970	      0.53088163	      0.94987563	     -1.05066263	      1.04574827	     -0.09568415	    -11.78636451	    -28.97477815	     -0.50570528	      4.79444825	     -4.96116424	      2.64336938	    -20.78504844	     -0.80628982	     23.71260862	     -7.91363683	     -0.13811902	      8.38466025	     -6.25192267	     -5.16915799	    -24.98003196	      1.25035225	     -2.42747443	     -0.66927244	     -9.61367947	      1.06741315	     16.92491868	     89.95437384	      0.00000000	      0.00000000	     16.18159485	     10.79286429	      3.98578676	     30.07565082	     89.95437384	      0.00000000	      0.00000000
      2.51000000	     16.06156125	     -3.10055420	     -1.02232159	      0.53673136	      0.94953442	     -1.05128155	      1.33658393	      0.16923379	    -12.84697918	    -27.25067592	     -0.47561402	      3.90295580	     -3.23345351	      2.36199748	    -21.10293014	     -0.47468364	     23.39736641	     -8.10557384	     -0.14146895	      8.86722789	     -6.00938202	     -5.12264942	    -25.04600741	      1.65312354	     -2.46778386	     -0.73294950	     -9.62030267	      0.99476165	     16.90812306	     89.95437384	      0.00000000	      0.00000000	     16.63591291	     10.56640250	      4.07407013	     30.66750486	     89.95437384	      0.00000000	      0.00000000
      2.52000000	     15.76282855	     -2.99530087	     -1.11487221	      0.54239685	      0.94856559	     -1.05179178	      2.16445175	      0.02361804	    -13.56674780	    -25.94962219	     -0.45290635	      3.56097582	     -2.49885784	      2.25264390	    -21.08526199	     -0.64880455	     23.38843666	     -8.25347233	     -0.14405027	      9.15399328	     -5.85596041	     -5.07816912	    -24.77960756	      1.58773794	     -2.38718566	     -0.86748596	     -9.65176560	      0.96512799	     16.99744072	     89.95437384	      0.00000000	      0.00000000	     17.04342700	     10.35435800	      4.02189607	     31.23718056	     89.95437384	      0.00000000	      0.00000000
      2.53000000	     16.09010167	     -3.33966543	     -0.52019784	      0.54857053	      0.94858621	     -1.05267754	      1.83590914	      0.27061261	    -15.57535762	    -23.96281947	     -0.41823010	      2.78591446	      0.32090348	      1.41140203	    -21.68552361	     -0.09809133	     22.68236200	     -8.59098728	     -0.14994101	      9.65073181	     -5.48015666	     -5.07028520	    -25.14222234	      2.16663322	     -2.70584575	     -0.93574142	     -9.60314006	      0.67096369	     17.00869331	     89.95437384	      0.00000000	      0.00000000	     17.34661516	     10.20781408	      3.89734306	     32.15056650	     89.95437384	      0.00000000	      0.00000000
      2.54000000	     16.09259723	     -3.48432373	     -0.32670092	      0.55463940	      0.94800895	     -1.05326767	      2.11053514	      0.33819140	    -17.04984029	    -22.45535060	     -0.39191980	      2.02355918	      2.17278171	      0.74162551	    -21.99350936	      0.09197607	     22.35131627	     -8.78819049	     -0.15338286	     10.12020218	     -5.16587750	     -5.07124154	    -25.15941887	      2.43663865	     -2.79586378	     -0.96483461	     -9.60481244	      0.62863669	     16.91887526	     89.95437384	      0.00000000	      0.00000000	     17.58880218	     10.03593081	      3.71306988	     33.00578215	     89.95437384	      0.00000000	      0.00000000
      2.55000000	     15.79376225	     -3.36400770	     -0.57298299	      0.56053422	      0.94685760	     -1.05328877	      2.97425418	      0.20614857	    -17.74322417	    -21.45124993	     -0.37439494	      1.77093714	      2.57263969	      0.66311134	    -21.98637146	     -0.13914818	     22.32844981	     -8.96458020	     -0.15646144	     10.33995829	     -5.05950472	     -5.04380571	    -24.87008799	      2.26551675	     -2.52080462	     -1.09333013	     -9.61544361	      0.66507324	     16.89994609	     89.95437384	      0.00000000	      0.00000000	     17.91367903	      9.77846404	      3.60919861	     33.70831266	     89.95437384	      0.00000000	      0.00000000
      2.56000000	     16.15378672	     -3.63194698	      0.16206809	      0.56701588	      0.94669706	     -1.05440885	      2.65117565	      0.16475965	    -20.94064884	    -19.89779080	     -0.34728196	      0.54319048	      6.90227359	     -1.69706994	    -22.64718195	      0.36515818	     21.34409087	     -9.23040964	     -0.16110104	     10.80001422	     -4.56020819	     -5.21379991	    -25.23375369	      2.84318427	     -3.03107935	     -1.17758640	     -9.62119142	      0.66949610	     16.94188244	     89.95437384	      0.00000000	      0.00000000	     18.00564475	      9.70440552	      3.22440723	     34.81884855	     89.95437384	      0.00000000	      0.00000000
